<?xml version="1.0" encoding="utf-8"?>
<!-- Generator: Adobe Illustrator 22.0.0, SVG Export Plug-In . SVG Version: 6.00 Build 0)  -->
<svg version="1.1" id="Capa_1" xmlns="http://www.w3.org/2000/svg" xmlns:xlink="http://www.w3.org/1999/xlink" x="0px" y="0px"
	 viewBox="0 0 512 512" style="enable-background:new 0 0 512 512;" xml:space="preserve">
<style type="text/css">
	.st0{fill:#8FECC8;}
	.st1{fill:#1DCD9F;}
	.st2{fill:#50E3C2;}
	.st3{fill:#088C6F;}
	.st4{fill:#FFFDF6;}
	.st5{fill:#F2F3EE;}
	.st6{fill:#FF8000;}
	.st7{fill:#D3560E;}
	.st8{fill:#FF9280;}
	.st9{fill:#FF2400;}
</style>
<path class="st0" d="M512,372H0v-31.5L54.3,182h403.4L512,340.5V372z"/>
<path class="st1" d="M512,512H0V342h512V512z"/>
<polygon class="st2" points="512,340.5 457.7,182 256,182 256,372 512,372 "/>
<rect x="256" y="342" class="st3" width="256" height="170"/>
<path class="st4" d="M373,291H139V77h234V291z"/>
<rect x="256" y="77" class="st5" width="117" height="214"/>
<rect x="114" y="261" class="st1" width="284" height="30"/>
<g>
	<rect x="161" class="st6" width="30" height="57"/>
	<rect x="241" y="10" class="st6" width="30" height="47"/>
</g>
<rect x="321" y="30" class="st7" width="30" height="27"/>
<polygon class="st8" points="241.9,235.7 195.9,189.7 217.1,168.5 241.9,193.3 294.9,140.3 316.1,161.5 "/>
<rect x="256" y="261" class="st3" width="142" height="30"/>
<polygon class="st9" points="256,221.6 316.1,161.5 294.9,140.3 256,179.1 "/>
<rect x="256" y="10" class="st7" width="15" height="47"/>
</svg>
