<?xml version="1.0" encoding="iso-8859-1"?>
<!-- Generator: Adobe Illustrator 19.0.0, SVG Export Plug-In . SVG Version: 6.00 Build 0)  -->
<svg version="1.1" id="Capa_1" xmlns="http://www.w3.org/2000/svg" xmlns:xlink="http://www.w3.org/1999/xlink" x="0px" y="0px"
	 viewBox="0 0 512 512" style="enable-background:new 0 0 512 512;" xml:space="preserve">
<path style="fill:#FFD9A5;" d="M512,372H0v-31.498L54.282,182h403.437L512,340.502V372z"/>
<polygon style="fill:#FFC36E;" points="512,340.502 457.718,182 256,182 256,372 512,372 "/>
<path style="fill:#93635B;" d="M512,512H0V342h512V512z"/>
<rect x="256" y="342" style="fill:#7F554E;" width="256" height="170"/>
<path style="fill:#FFF65C;" d="M373,291H139V77h234V291z"/>
<rect x="256" y="77" style="fill:#FFDF34;" width="117" height="214"/>
<rect x="114" y="261" style="fill:#93635B;" width="284" height="30"/>
<g>
	<rect x="161" style="fill:#FFB74F;" width="30" height="57"/>
	<rect x="241" y="10" style="fill:#FFB74F;" width="30" height="47"/>
</g>
<rect x="321" y="30" style="fill:#FF9A00;" width="30" height="27"/>
<polygon style="fill:#00E6B9;" points="241.858,235.71 195.896,189.749 217.109,168.536 241.858,193.284 294.891,140.251 
	316.104,161.464 "/>
<rect x="256" y="261" style="fill:#7F554E;" width="142" height="30"/>
<polygon style="fill:#00CCCB;" points="256,221.568 316.104,161.464 294.891,140.251 256,179.142 "/>
<rect x="256" y="10" style="fill:#FF9A00;" width="15" height="47"/>
<g>
</g>
<g>
</g>
<g>
</g>
<g>
</g>
<g>
</g>
<g>
</g>
<g>
</g>
<g>
</g>
<g>
</g>
<g>
</g>
<g>
</g>
<g>
</g>
<g>
</g>
<g>
</g>
<g>
</g>
</svg>
