<svg xmlns="http://www.w3.org/2000/svg" viewBox="0 0 443.406 512"><defs><style>.a{fill:#ebebeb;}.b{fill:#9ff3f3;}.c{fill:#ccc;}.d{fill:#ffa638;}.e{fill:#5dbcaf;}</style></defs><g transform="translate(-517 -394)"><path class="a" d="M477.165,127.684,256.006,0,34.847,127.684,34.3,128V384l.07.047L256.006,512,477.633,384.035l.07-.035V128Z" transform="translate(482.703 394)"/><path class="b" d="M477.165,127.684,256.006,0V512L477.633,384.035l.07-.035V128Z" transform="translate(482.703 394)"/><path class="c" d="M256.006,255.38v.7L34.367,384.047,34.3,384V128l.55-.316Z" transform="translate(482.703 394)"/><path class="d" d="M477.7,128V384l-.07.035L256.006,256.082v-.7l221.159-127.7Z" transform="translate(482.703 394)"/><path class="e" d="M477.7,128V384l-.07.035L256.006,256.082v-.7l221.159-127.7Z" transform="translate(482.703 394)"/></g></svg>